HIERARCHY
ROOT mixamorig:Hips
{
	OFFSET -0.000008 104.274872 1.554316
	CHANNELS 6 Xposition Yposition Zposition Xrotation Yrotation Zrotation
	JOINT mixamorig:Spine
	{
		OFFSET -0.000005 10.181595 0.131519
		CHANNELS 6 Xposition Yposition Zposition Xrotation Yrotation Zrotation
		JOINT mixamorig:Spine1
		{
			OFFSET -0.000000 9.893959 -1.470707
			CHANNELS 6 Xposition Yposition Zposition Xrotation Yrotation Zrotation
			JOINT mixamorig:Spine2
			{
				OFFSET -0.000000 9.220757 -1.370641
				CHANNELS 6 Xposition Yposition Zposition Xrotation Yrotation Zrotation
				JOINT mixamorig:Neck
				{
					OFFSET 0.000001 16.740417 -2.049036
					CHANNELS 6 Xposition Yposition Zposition Xrotation Yrotation Zrotation
					JOINT mixamorig:Head
					{
						OFFSET 0.000000 9.617874 1.685006
						CHANNELS 6 Xposition Yposition Zposition Xrotation Yrotation Zrotation
						JOINT mixamorig:HeadTop_End
						{
							OFFSET 0.000002 22.037354 7.501101
							CHANNELS 6 Xposition Yposition Zposition Xrotation Yrotation Zrotation
							End Site
							{
								OFFSET 0.000168 2310.654297 -282.823242
							}
						}
					}
				}
				JOINT mixamorig:RightShoulder
				{
					OFFSET -4.569970 11.014908 -2.160885
					CHANNELS 6 Xposition Yposition Zposition Xrotation Yrotation Zrotation
					JOINT mixamorig:RightArm
					{
						OFFSET -10.592851 -0.524811 -2.232101
						CHANNELS 6 Xposition Yposition Zposition Xrotation Yrotation Zrotation
						JOINT mixamorig:RightForeArm
						{
							OFFSET -27.841511 0.000031 -0.000004
							CHANNELS 6 Xposition Yposition Zposition Xrotation Yrotation Zrotation
							JOINT mixamorig:RightHand
							{
								OFFSET -28.328831 -0.000015 0.000015
								CHANNELS 6 Xposition Yposition Zposition Xrotation Yrotation Zrotation
								JOINT mixamorig:RightHandThumb1
								{
									OFFSET -2.464806 -1.573990 2.681852
									CHANNELS 6 Xposition Yposition Zposition Xrotation Yrotation Zrotation
									JOINT mixamorig:RightHandThumb2
									{
										OFFSET -3.215179 -1.872803 1.924282
										CHANNELS 6 Xposition Yposition Zposition Xrotation Yrotation Zrotation
										JOINT mixamorig:RightHandThumb3
										{
											OFFSET -2.654831 -1.527969 1.512609
											CHANNELS 6 Xposition Yposition Zposition Xrotation Yrotation Zrotation
											JOINT mixamorig:RightHandThumb4
											{
												OFFSET -2.018814 -1.152008 1.108052
												CHANNELS 6 Xposition Yposition Zposition Xrotation Yrotation Zrotation
												End Site
												{
													OFFSET -188.809540 -114.533607 132.431396
												}
											}
										}
									}
								}
								JOINT mixamorig:RightHandIndex1
								{
									OFFSET -9.108284 -0.517868 2.259835
									CHANNELS 6 Xposition Yposition Zposition Xrotation Yrotation Zrotation
									JOINT mixamorig:RightHandIndex2
									{
										OFFSET -3.699989 0.000000 0.001215
										CHANNELS 6 Xposition Yposition Zposition Xrotation Yrotation Zrotation
										JOINT mixamorig:RightHandIndex3
										{
											OFFSET -2.850006 0.000031 -0.000522
											CHANNELS 6 Xposition Yposition Zposition Xrotation Yrotation Zrotation
											JOINT mixamorig:RightHandIndex4
											{
												OFFSET -2.772186 -0.000015 -0.000020
												CHANNELS 6 Xposition Yposition Zposition Xrotation Yrotation Zrotation
												End Site
												{
													OFFSET -277.218445 0.000000 -0.050231
												}
											}
										}
									}
								}
								JOINT mixamorig:RightHandMiddle1
								{
									OFFSET -9.532516 -0.000031 -0.000023
									CHANNELS 6 Xposition Yposition Zposition Xrotation Yrotation Zrotation
									JOINT mixamorig:RightHandMiddle2
									{
										OFFSET -3.700005 -0.000015 0.003713
										CHANNELS 6 Xposition Yposition Zposition Xrotation Yrotation Zrotation
										JOINT mixamorig:RightHandMiddle3
										{
											OFFSET -2.949974 0.000015 -0.002054
											CHANNELS 6 Xposition Yposition Zposition Xrotation Yrotation Zrotation
											JOINT mixamorig:RightHandMiddle4
											{
												OFFSET -2.946640 0.000000 -0.000156
												CHANNELS 6 Xposition Yposition Zposition Xrotation Yrotation Zrotation
												End Site
												{
													OFFSET -294.664337 0.000000 -0.113670
												}
											}
										}
									}
								}
								JOINT mixamorig:RightHandRing1
								{
									OFFSET -9.103600 -0.043076 -1.865134
									CHANNELS 6 Xposition Yposition Zposition Xrotation Yrotation Zrotation
									JOINT mixamorig:RightHandRing2
									{
										OFFSET -3.379288 0.000000 -0.001055
										CHANNELS 6 Xposition Yposition Zposition Xrotation Yrotation Zrotation
										JOINT mixamorig:RightHandRing3
										{
											OFFSET -2.889687 -0.000015 0.000379
											CHANNELS 6 Xposition Yposition Zposition Xrotation Yrotation Zrotation
											JOINT mixamorig:RightHandRing4
											{
												OFFSET -2.638809 -0.000015 0.000941
												CHANNELS 6 Xposition Yposition Zposition Xrotation Yrotation Zrotation
												End Site
												{
													OFFSET -263.880371 0.000000 0.516020
												}
											}
										}
									}
								}
								JOINT mixamorig:RightHandPinky1
								{
									OFFSET -8.076683 -0.486710 -3.806280
									CHANNELS 6 Xposition Yposition Zposition Xrotation Yrotation Zrotation
									JOINT mixamorig:RightHandPinky2
									{
										OFFSET -3.600014 -0.000015 -0.003747
										CHANNELS 6 Xposition Yposition Zposition Xrotation Yrotation Zrotation
										JOINT mixamorig:RightHandPinky3
										{
											OFFSET -2.099983 0.000000 -0.005739
											CHANNELS 6 Xposition Yposition Zposition Xrotation Yrotation Zrotation
											JOINT mixamorig:RightHandPinky4
											{
												OFFSET -2.115768 -0.000031 -0.003680
												CHANNELS 6 Xposition Yposition Zposition Xrotation Yrotation Zrotation
												End Site
												{
													OFFSET -211.577087 0.000000 -0.350686
												}
											}
										}
									}
								}
							}
						}
					}
				}
				JOINT mixamorig:LeftShoulder
				{
					OFFSET 4.570447 11.014725 -2.160855
					CHANNELS 6 Xposition Yposition Zposition Xrotation Yrotation Zrotation
					JOINT mixamorig:LeftArm
					{
						OFFSET 10.592371 -0.524597 -2.232119
						CHANNELS 6 Xposition Yposition Zposition Xrotation Yrotation Zrotation
						JOINT mixamorig:LeftForeArm
						{
							OFFSET 27.841532 -0.000031 0.000026
							CHANNELS 6 Xposition Yposition Zposition Xrotation Yrotation Zrotation
							JOINT mixamorig:LeftHand
							{
								OFFSET 28.328846 -0.000061 0.000022
								CHANNELS 6 Xposition Yposition Zposition Xrotation Yrotation Zrotation
								JOINT mixamorig:LeftHandThumb1
								{
									OFFSET 2.466141 -1.576172 2.681732
									CHANNELS 6 Xposition Yposition Zposition Xrotation Yrotation Zrotation
									JOINT mixamorig:LeftHandThumb2
									{
										OFFSET 3.217812 -1.872070 1.916482
										CHANNELS 6 Xposition Yposition Zposition Xrotation Yrotation Zrotation
										JOINT mixamorig:LeftHandThumb3
										{
											OFFSET 2.656029 -1.528778 1.514513
											CHANNELS 6 Xposition Yposition Zposition Xrotation Yrotation Zrotation
											JOINT mixamorig:LeftHandThumb4
											{
												OFFSET 2.020889 -1.154053 1.115139
												CHANNELS 6 Xposition Yposition Zposition Xrotation Yrotation Zrotation
												End Site
												{
													OFFSET 190.885437 -115.081749 130.048782
												}
											}
										}
									}
								}
								JOINT mixamorig:LeftHandIndex1
								{
									OFFSET 9.109314 -0.518021 2.259871
									CHANNELS 6 Xposition Yposition Zposition Xrotation Yrotation Zrotation
									JOINT mixamorig:LeftHandIndex2
									{
										OFFSET 3.699989 0.000000 -0.000322
										CHANNELS 6 Xposition Yposition Zposition Xrotation Yrotation Zrotation
										JOINT mixamorig:LeftHandIndex3
										{
											OFFSET 2.850006 0.000000 0.000352
											CHANNELS 6 Xposition Yposition Zposition Xrotation Yrotation Zrotation
											JOINT mixamorig:LeftHandIndex4
											{
												OFFSET 2.774864 -0.000031 -0.000027
												CHANNELS 6 Xposition Yposition Zposition Xrotation Yrotation Zrotation
												End Site
												{
													OFFSET 277.486267 0.000000 -0.009857
												}
											}
										}
									}
								}
								JOINT mixamorig:LeftHandMiddle1
								{
									OFFSET 9.533394 0.000061 0.000044
									CHANNELS 6 Xposition Yposition Zposition Xrotation Yrotation Zrotation
									JOINT mixamorig:LeftHandMiddle2
									{
										OFFSET 3.699989 -0.000015 -0.000231
										CHANNELS 6 Xposition Yposition Zposition Xrotation Yrotation Zrotation
										JOINT mixamorig:LeftHandMiddle3
										{
											OFFSET 2.949997 -0.000015 -0.000059
											CHANNELS 6 Xposition Yposition Zposition Xrotation Yrotation Zrotation
											JOINT mixamorig:LeftHandMiddle4
											{
												OFFSET 2.952896 0.000031 0.000063
												CHANNELS 6 Xposition Yposition Zposition Xrotation Yrotation Zrotation
												End Site
												{
													OFFSET 295.289337 0.000000 0.022810
												}
											}
										}
									}
								}
								JOINT mixamorig:LeftHandRing1
								{
									OFFSET 9.104523 -0.042999 -1.865074
									CHANNELS 6 Xposition Yposition Zposition Xrotation Yrotation Zrotation
									JOINT mixamorig:LeftHandRing2
									{
										OFFSET 3.150009 -0.000031 0.000043
										CHANNELS 6 Xposition Yposition Zposition Xrotation Yrotation Zrotation
										JOINT mixamorig:LeftHandRing3
										{
											OFFSET 2.949982 -0.000015 0.000040
											CHANNELS 6 Xposition Yposition Zposition Xrotation Yrotation Zrotation
											JOINT mixamorig:LeftHandRing4
											{
												OFFSET 2.644348 0.000000 0.000057
												CHANNELS 6 Xposition Yposition Zposition Xrotation Yrotation Zrotation
												End Site
												{
													OFFSET 264.434631 0.000000 0.012105
												}
											}
										}
									}
								}
								JOINT mixamorig:LeftHandPinky1
								{
									OFFSET 8.077789 -0.486847 -3.806259
									CHANNELS 6 Xposition Yposition Zposition Xrotation Yrotation Zrotation
									JOINT mixamorig:LeftHandPinky2
									{
										OFFSET 3.599953 0.000031 0.014727
										CHANNELS 6 Xposition Yposition Zposition Xrotation Yrotation Zrotation
										JOINT mixamorig:LeftHandPinky3
										{
											OFFSET 2.100021 0.000015 0.007705
											CHANNELS 6 Xposition Yposition Zposition Xrotation Yrotation Zrotation
											JOINT mixamorig:LeftHandPinky4
											{
												OFFSET 2.125504 0.000031 0.007517
												CHANNELS 6 Xposition Yposition Zposition Xrotation Yrotation Zrotation
												End Site
												{
													OFFSET 212.550781 0.000000 0.625752
												}
											}
										}
									}
								}
							}
						}
					}
				}
			}
		}
	}
	JOINT mixamorig:RightUpLeg
	{
		OFFSET -8.207787 -6.751648 -1.599560
		CHANNELS 6 Xposition Yposition Zposition Xrotation Yrotation Zrotation
		JOINT mixamorig:RightLeg
		{
			OFFSET -0.000002 -44.370117 0.345942
			CHANNELS 6 Xposition Yposition Zposition Xrotation Yrotation Zrotation
			JOINT mixamorig:RightFoot
			{
				OFFSET 0.000003 -44.423679 -3.043532
				CHANNELS 6 Xposition Yposition Zposition Xrotation Yrotation Zrotation
				JOINT mixamorig:RightToeBase
				{
					OFFSET -0.000002 -8.728671 10.710558
					CHANNELS 6 Xposition Yposition Zposition Xrotation Yrotation Zrotation
					JOINT mixamorig:RightToe_End
					{
						OFFSET -0.000001 -0.000679 9.278119
						CHANNELS 6 Xposition Yposition Zposition Xrotation Yrotation Zrotation
						End Site
						{
							OFFSET 0.000000 -0.067690 927.812134
						}
					}
				}
			}
		}
	}
	JOINT mixamorig:LeftUpLeg
	{
		OFFSET 8.207793 -6.751686 -1.599556
		CHANNELS 6 Xposition Yposition Zposition Xrotation Yrotation Zrotation
		JOINT mixamorig:LeftLeg
		{
			OFFSET -0.000004 -44.370014 0.346954
			CHANNELS 6 Xposition Yposition Zposition Xrotation Yrotation Zrotation
			JOINT mixamorig:LeftFoot
			{
				OFFSET -0.000001 -44.423672 -3.044401
				CHANNELS 6 Xposition Yposition Zposition Xrotation Yrotation Zrotation
				JOINT mixamorig:LeftToeBase
				{
					OFFSET -0.000002 -8.728669 10.710558
					CHANNELS 6 Xposition Yposition Zposition Xrotation Yrotation Zrotation
					JOINT mixamorig:LeftToe_End
					{
						OFFSET -0.000003 -0.000679 9.278133
						CHANNELS 6 Xposition Yposition Zposition Xrotation Yrotation Zrotation
						End Site
						{
							OFFSET 0.000000 -0.068021 927.813477
						}
					}
				}
			}
		}
	}
}
MOTION
Frames: 3
Frame Time: 0.033333
0.000006 104.270477 1.554256 0.000010 0.000003 -0.000113 -0.000005 10.181587 0.131522 0.000001 -0.000003 0.000084 -0.000000 9.893967 -1.470711 0.000001 0.000000 -0.000000 -0.000000 9.220802 -1.370642 0.000000 -0.000000 -0.000000 0.000001 16.740433 -2.049030 0.000000 -0.000000 -0.000000 0.000000 9.617859 1.685014 0.000000 0.000000 0.000000 0.000002 22.037384 7.501101 0.000000 -0.000000 0.000000 -4.569968 11.014880 -2.160881 0.000008 0.000001 -0.000038 -10.592875 -0.524763 -2.231897 64.468865 32.246969 -20.661554 -27.841513 0.000010 0.000546 130.186138 68.875341 -111.789624 -28.328829 0.000019 0.000031 -0.000321 -0.000046 0.000007 -2.464471 -1.573692 2.682288 -53.965980 -176.755829 -30.213646 -3.215283 -1.872638 1.924691 154.753946 28.374278 -15.980812 -2.654948 -1.527893 1.513074 148.641623 26.324879 -39.589231 -2.018819 -1.152000 1.108045 -0.000001 -0.000002 0.000005 -9.108398 -0.517602 2.260221 117.045318 20.217351 -32.547665 -3.700072 0.000191 0.001675 126.767068 21.086590 -40.701186 -2.850109 0.000285 -0.000083 130.418965 15.561903 -32.960003 -2.772185 -0.000001 -0.000019 -0.000003 -0.000000 0.000003 -9.532579 0.000283 0.000274 101.013334 13.388060 -16.377878 -3.700061 0.000322 0.004012 104.150283 12.394365 -15.745493 -2.950061 0.000321 -0.001761 100.899031 10.937196 -13.216891 -2.946625 0.000015 -0.000156 -0.000001 0.000002 -0.000000 -9.103677 -0.042742 -1.864848 98.146936 13.253689 -15.214366 -3.379337 0.000312 -0.000783 100.520358 10.755240 -12.940663 -2.889766 0.000340 0.000673 99.504293 8.190401 -9.723812 -2.638802 -0.000001 0.000936 0.000000 0.000002 0.000000 -8.076734 -0.486362 -3.806026 88.488386 14.278960 -13.767984 -3.600031 0.000281 -0.003524 90.350104 7.540186 -7.233377 -2.100022 0.000326 -0.005485 91.955117 5.258965 -5.215589 -2.115768 -0.000027 -0.003678 0.000004 0.000002 -0.000000 4.570446 11.014691 -2.160851 -0.000018 0.000010 -0.000021 10.592470 -0.524560 -2.232352 36.664257 -60.697699 21.957984 27.841726 -0.000077 -0.000087 56.072735 -109.896316 74.401428 28.328836 0.000002 0.000029 0.000018 -0.000088 0.000001 2.466132 -1.576160 2.681903 42.846176 126.237660 -100.374370 3.217831 -1.871988 1.916550 -101.969083 35.867376 44.106595 2.656064 -1.528716 1.514609 -105.887514 25.417239 42.466045 2.020880 -1.154065 1.115158 0.000001 0.000000 0.000001 9.109170 -0.517718 2.260073 -139.662779 -19.453296 -50.024483 3.699733 0.000055 -0.000198 -170.363633 -24.119476 -136.901785 2.850130 0.000149 0.000367 -199.070508 -17.089818 83.617928 2.774871 -0.000034 -0.000022 0.000002 0.000002 0.000000 9.533305 0.000384 0.000245 40.449528 -168.103018 148.428330 3.699696 0.000178 -0.000117 -170.403862 -14.810401 -114.293701 2.950133 0.000130 -0.000021 -195.923239 -13.380098 79.991296 2.952867 -0.000029 0.000059 -0.000000 0.000003 -0.000001 9.104386 -0.042681 -1.864901 -147.996484 -13.408045 315.422125 3.150094 0.000302 0.000036 -23.609876 -172.993228 212.662188 2.949975 0.000308 -0.000075 123.228852 -1.195215 2.214444 2.644324 0.000030 0.000063 -0.000003 -0.000001 0.000000 8.077607 -0.486548 -3.806083 28.308397 -165.951727 127.232422 3.599985 0.000407 0.014720 -200.693907 -1.846050 12.633675 2.099962 0.000400 0.007581 129.570546 5.176805 -10.210741 2.125518 0.000001 0.007517 -0.000001 0.000001 0.000000 -8.207786 -6.751667 -1.599560 -0.077001 -0.000003 0.000080 -0.000002 -44.370110 0.345938 0.153719 -0.000000 -0.000000 0.000000 -44.423679 -3.043532 -0.076700 0.000000 -0.000002 -0.000006 -8.728667 10.710559 -0.000009 -0.000000 -0.000000 -0.000001 -0.000679 9.278123 0.000000 -0.000000 -0.000000 8.207792 -6.751710 -1.599556 -0.074518 -0.000003 0.000081 -0.000002 -44.370014 0.346960 0.148822 0.000002 0.000000 -0.000001 -44.423664 -3.044403 -0.074314 0.000000 -0.000002 -0.000004 -8.728671 10.710558 0.000007 -0.000000 -0.000000 0.000000 -0.000680 9.278137 -0.000000 0.000000 -0.000001 
0.000006 104.270477 1.554256 0.000010 0.000003 -0.000113 -0.000005 10.181587 0.131522 0.000001 -0.000003 0.000084 -0.000000 9.893967 -1.470711 0.000001 0.000000 -0.000000 -0.000000 9.220802 -1.370642 0.000000 -0.000000 -0.000000 0.000001 16.740433 -2.049030 0.000000 -0.000000 -0.000000 0.000000 9.617859 1.685014 0.000000 0.000000 0.000000 0.000002 22.037384 7.501101 0.000000 -0.000000 0.000000 -4.569968 11.014880 -2.160881 0.000008 0.000001 -0.000038 -10.592835 -0.524822 -2.231808 61.658788 51.874228 -32.373481 -27.841482 0.000009 0.000606 161.733716 73.060082 -155.510444 -28.328836 0.000016 0.000020 -0.000324 -0.000045 0.000007 -2.464364 -1.574023 2.682213 -14.754083 -114.561936 30.480597 -3.214720 -1.872722 1.924717 144.338290 -34.575070 -172.078365 -2.654568 -1.527661 1.513019 127.353371 8.050325 128.166546 -2.018830 -1.152002 1.108053 -0.000004 0.000004 0.000003 -9.108362 -0.517626 2.260314 139.779712 14.008256 -37.223544 -3.700083 0.000282 0.001491 86.466370 19.837531 -18.648090 -2.850070 0.000154 -0.000492 27.656513 12.256728 -3.027519 -2.772172 -0.000001 -0.000025 0.000003 0.000002 0.000000 -9.532568 0.000232 0.000429 136.139467 8.524704 -21.309837 -3.700038 0.000342 0.003887 81.698987 5.581709 -4.751945 -2.950020 0.000108 -0.002043 19.711374 6.304767 -1.095025 -2.946641 0.000029 -0.000156 -0.000000 0.000000 0.000000 -9.103657 -0.042763 -1.864694 134.982829 6.106627 -14.572444 -3.379171 0.000342 -0.000972 71.269001 -16.752470 12.043410 -2.889600 0.000015 0.000328 -0.114531 -20.944140 -0.013574 -2.638815 0.000001 0.000944 -0.000003 0.000004 -0.000001 -8.076691 -0.486386 -3.805827 135.662078 3.716453 -8.784041 -3.599836 0.000328 -0.003655 80.582073 -23.303103 19.971253 -2.099780 0.000012 -0.005819 3.429905 -34.879536 1.020561 -2.115775 -0.000055 -0.003683 -0.000002 -0.000000 -0.000004 4.570446 11.014691 -2.160851 -0.000018 0.000010 -0.000021 10.592478 -0.524553 -2.232359 39.512190 -61.611155 24.174493 27.841747 -0.000072 -0.000084 42.985246 -111.936719 60.491386 28.328833 -0.000015 0.000033 0.000022 -0.000089 -0.000000 2.466119 -1.576177 2.681880 27.183584 122.004145 -82.417823 3.217831 -1.871988 1.916547 -104.629858 36.840992 46.242484 2.656079 -1.528713 1.514634 -106.466755 23.150510 41.698643 2.020887 -1.154071 1.115152 -0.000002 0.000006 0.000004 9.109052 -0.517912 2.259983 -171.676668 -16.875907 -127.772704 3.700138 0.000152 -0.000357 -220.860710 -23.456249 -301.690385 2.850080 0.000195 0.000228 -257.693858 -17.244056 21.323137 2.774890 -0.000018 -0.000028 -0.000000 -0.000001 -0.000001 9.533164 0.000073 0.000126 2.337229 -169.094242 24.067910 3.700103 0.000241 -0.000294 -227.712933 -15.972483 35.196586 2.950077 0.000237 -0.000187 -259.354195 -13.616940 16.383816 2.952872 -0.000017 0.000085 -0.000001 0.000001 -0.000003 9.104538 -0.043029 -1.865016 -183.380512 -9.424982 140.630890 3.150034 0.000316 -0.000073 -54.439931 -174.359840 190.943976 2.949994 0.000242 -0.000114 95.514144 -3.491990 3.846802 2.644305 0.000018 0.000051 -0.000002 -0.000003 -0.000001 8.077908 -0.486752 -3.806221 -8.222635 -173.265684 265.753590 3.599937 0.000395 0.014627 -226.585174 2.396069 -4.631890 2.099942 0.000329 0.007545 109.134743 8.609375 -11.605000 2.125498 0.000001 0.007513 -0.000002 0.000000 0.000002 -8.207786 -6.751667 -1.599560 -0.077001 -0.000003 0.000080 -0.000002 -44.370110 0.345938 0.153719 -0.000000 -0.000000 0.000000 -44.423679 -3.043532 -0.076700 0.000000 -0.000002 -0.000006 -8.728667 10.710559 -0.000009 -0.000000 -0.000000 -0.000001 -0.000679 9.278123 0.000000 -0.000000 -0.000000 8.207792 -6.751710 -1.599556 -0.074518 -0.000003 0.000081 -0.000002 -44.370014 0.346960 0.148822 0.000002 0.000000 -0.000001 -44.423664 -3.044403 -0.074314 0.000000 -0.000002 -0.000004 -8.728671 10.710558 0.000007 -0.000000 -0.000000 0.000000 -0.000680 9.278137 -0.000000 0.000000 -0.000001 
0.000006 104.270477 1.554256 0.000010 0.000003 -0.000113 -0.000005 10.181587 0.131522 0.000001 -0.000003 0.000084 -0.000000 9.893967 -1.470711 0.000001 0.000000 -0.000000 -0.000000 9.220802 -1.370642 0.000000 -0.000000 -0.000000 0.000001 16.740433 -2.049030 0.000000 -0.000000 -0.000000 0.000000 9.617859 1.685014 0.000000 0.000000 0.000000 0.000002 22.037384 7.501101 0.000000 -0.000000 0.000000 -4.569968 11.014880 -2.160881 0.000008 0.000001 -0.000038 -10.592819 -0.524835 -2.231781 62.220715 58.368427 -37.253645 -27.841417 0.000019 0.000630 194.939596 64.398541 -203.523600 -28.328835 0.000020 0.000023 -0.000326 -0.000044 0.000007 -2.464319 -1.573841 2.682211 -49.877433 -134.421251 -14.443842 -3.214701 -1.872838 1.924695 162.949940 -46.920599 -146.737339 -2.654424 -1.527886 1.513098 142.357125 -24.470368 183.246858 -2.018831 -1.152001 1.108067 -0.000003 -0.000002 0.000004 -9.108378 -0.517667 2.260306 140.935093 15.313474 -41.639565 -3.700089 0.000279 0.001611 115.488308 16.635597 -26.047961 -2.850108 0.000360 -0.000268 95.307818 12.068353 -13.230561 -2.772169 -0.000014 -0.000010 0.000003 -0.000003 0.000002 -9.532594 0.000186 0.000419 137.947200 12.023950 -31.006918 -3.700065 0.000333 0.004062 115.669158 9.159942 -14.372077 -2.950050 0.000373 -0.001805 98.149047 8.554850 -9.853192 -2.946620 0.000000 -0.000148 0.000000 0.000000 -0.000002 -9.103665 -0.042785 -1.864682 135.808736 10.053890 -24.346385 -3.379283 0.000338 -0.000702 117.846909 3.417840 -5.694666 -2.889729 0.000356 0.000690 104.084174 2.143435 -2.801817 -2.638808 -0.000044 0.000937 0.000002 0.000002 0.000003 -8.076701 -0.486425 -3.805805 139.819259 7.208466 -19.161758 -3.599972 0.000299 -0.003365 127.096911 -0.557365 1.738570 -2.099973 0.000347 -0.005387 117.171403 -3.067190 5.327856 -2.115776 -0.000054 -0.003682 0.000001 0.000000 -0.000006 4.570446 11.014691 -2.160851 -0.000018 0.000010 -0.000021 10.592486 -0.524575 -2.232371 44.270807 -61.915303 27.425412 27.841789 -0.000092 -0.000070 25.993574 -117.827484 41.896230 28.328840 -0.000028 0.000024 0.000022 -0.000089 -0.000000 2.465879 -1.576123 2.681869 -56.353575 150.374538 28.438761 3.217669 -1.872071 1.916523 -189.651827 51.089494 138.578227 2.655939 -1.528811 1.514627 -187.680812 37.768316 129.502805 2.020883 -1.154070 1.115145 -0.000004 0.000003 0.000006 9.109420 -0.517994 2.259924 -192.672233 -19.224595 -246.569610 3.700143 0.000154 -0.000345 -222.075008 -23.659427 -302.812038 2.850064 0.000267 0.000269 -234.954273 -15.706653 29.705620 2.774879 -0.000005 -0.000029 -0.000002 -0.000000 0.000000 9.533530 0.000171 0.000092 -13.111025 -167.635273 -93.447841 3.700110 0.000239 -0.000285 -227.980991 -17.064411 37.253037 2.950073 0.000249 -0.000168 -243.480343 -13.593268 21.816092 2.952863 -0.000007 0.000060 0.000002 0.000002 0.000004 9.104673 -0.042872 -1.865048 -193.957538 -11.750750 80.119512 3.150078 0.000283 -0.000023 -48.906149 -169.328203 203.217321 2.950024 0.000286 -0.000098 115.189050 -6.000620 9.443277 2.644318 0.000036 0.000054 0.000001 -0.000001 -0.000000 8.077923 -0.486639 -3.806231 -15.874360 -172.374290 235.212481 3.599974 0.000382 0.014632 -222.855276 -3.006065 8.812466 2.100002 0.000343 0.007544 118.512716 0.161426 0.411586 2.125497 -0.000019 0.007513 0.000004 -0.000000 -0.000000 -8.207786 -6.751667 -1.599560 -0.077001 -0.000003 0.000080 -0.000002 -44.370110 0.345938 0.153719 -0.000000 -0.000000 0.000000 -44.423679 -3.043532 -0.076700 0.000000 -0.000002 -0.000006 -8.728667 10.710559 -0.000009 -0.000000 -0.000000 -0.000001 -0.000679 9.278123 0.000000 -0.000000 -0.000000 8.207792 -6.751710 -1.599556 -0.074518 -0.000003 0.000081 -0.000002 -44.370014 0.346960 0.148822 0.000002 0.000000 -0.000001 -44.423664 -3.044403 -0.074314 0.000000 -0.000002 -0.000004 -8.728671 10.710558 0.000007 -0.000000 -0.000000 0.000000 -0.000680 9.278137 -0.000000 0.000000 -0.000001 
